<svg xmlns="http://www.w3.org/2000/svg" viewBox="0 0 512 512" width="512" height="512">
  <defs><linearGradient id="fondo" x1="0" y1="0" x2="0" y2="1"><stop offset="0" stop-color="#25344d"/><stop offset="1" stop-color="#121a28"/></linearGradient></defs>
  <rect width="512" height="512" rx="112" fill="url(#fondo)"/>
  <g transform="translate(256 256) scale(1.0) translate(-256 -256)"><path d="M 46 436 Q 256 414 466 436" stroke="#f5a623" stroke-width="11" fill="none" stroke-linecap="round"/><g transform="translate(256 212)">
    <path d="M -50 220 L -29 28 L 29 28 L 50 220 Z" fill="#f4f6fa"/>
    <path d="M 9 28 L 29 28 L 50 220 L 24 220 Z" fill="#d3dae6"/>
    <path d="M -14 220 L -14 188 A 14 14 0 0 1 14 188 L 14 220 Z" fill="#2b3a55"/>
    <rect x="-8" y="98" width="16" height="22" rx="3" fill="#2b3a55"/>
    <path d="M -38 32 L 0 -14 L 38 32 Z" fill="#2b3a55"/>
    <path d="M -40 34 L 40 34" stroke="#f4f6fa" stroke-width="7" stroke-linecap="round"/>
    <g transform="rotate(22)"><rect x="26" y="-22.0" width="140" height="44" rx="6" fill="#f5a623" fill-opacity="0.35" stroke="#f5a623" stroke-width="11"/><line x1="61.0" y1="-22.0" x2="61.0" y2="22.0" stroke="#f5a623" stroke-width="8"/><line x1="96.0" y1="-22.0" x2="96.0" y2="22.0" stroke="#f5a623" stroke-width="8"/><line x1="131.0" y1="-22.0" x2="131.0" y2="22.0" stroke="#f5a623" stroke-width="8"/><line x1="26" y1="0" x2="166" y2="0" stroke="#f5a623" stroke-width="7"/><line x1="0" y1="0" x2="28" y2="0" stroke="#f5a623" stroke-width="13" stroke-linecap="round"/></g><g transform="rotate(112)"><rect x="26" y="-22.0" width="140" height="44" rx="6" fill="#f5a623" fill-opacity="0.35" stroke="#f5a623" stroke-width="11"/><line x1="61.0" y1="-22.0" x2="61.0" y2="22.0" stroke="#f5a623" stroke-width="8"/><line x1="96.0" y1="-22.0" x2="96.0" y2="22.0" stroke="#f5a623" stroke-width="8"/><line x1="131.0" y1="-22.0" x2="131.0" y2="22.0" stroke="#f5a623" stroke-width="8"/><line x1="26" y1="0" x2="166" y2="0" stroke="#f5a623" stroke-width="7"/><line x1="0" y1="0" x2="28" y2="0" stroke="#f5a623" stroke-width="13" stroke-linecap="round"/></g><g transform="rotate(202)"><rect x="26" y="-22.0" width="140" height="44" rx="6" fill="#f5a623" fill-opacity="0.35" stroke="#f5a623" stroke-width="11"/><line x1="61.0" y1="-22.0" x2="61.0" y2="22.0" stroke="#f5a623" stroke-width="8"/><line x1="96.0" y1="-22.0" x2="96.0" y2="22.0" stroke="#f5a623" stroke-width="8"/><line x1="131.0" y1="-22.0" x2="131.0" y2="22.0" stroke="#f5a623" stroke-width="8"/><line x1="26" y1="0" x2="166" y2="0" stroke="#f5a623" stroke-width="7"/><line x1="0" y1="0" x2="28" y2="0" stroke="#f5a623" stroke-width="13" stroke-linecap="round"/></g><g transform="rotate(292)"><rect x="26" y="-22.0" width="140" height="44" rx="6" fill="#f5a623" fill-opacity="0.35" stroke="#f5a623" stroke-width="11"/><line x1="61.0" y1="-22.0" x2="61.0" y2="22.0" stroke="#f5a623" stroke-width="8"/><line x1="96.0" y1="-22.0" x2="96.0" y2="22.0" stroke="#f5a623" stroke-width="8"/><line x1="131.0" y1="-22.0" x2="131.0" y2="22.0" stroke="#f5a623" stroke-width="8"/><line x1="26" y1="0" x2="166" y2="0" stroke="#f5a623" stroke-width="7"/><line x1="0" y1="0" x2="28" y2="0" stroke="#f5a623" stroke-width="13" stroke-linecap="round"/></g>
    <circle r="17" fill="#f5a623"/><circle r="7" fill="#1a2332"/>
  </g></g>
</svg>